<svg xmlns="http://www.w3.org/2000/svg" version="1.1" xmlns:xlink="http://www.w3.org/1999/xlink" xmlns:svgjs="http://svgjs.com/svgjs" width="512" height="512" x="0" y="0" viewBox="0 0 512 512.001" style="enable-background:new 0 0 512 512" xml:space="preserve" class=""><g><path fill="#20303f" d="M114.48 288.621H33.422c-14.254 0-25.809-11.558-25.809-25.812V61.047c0-29.512 23.922-53.434 53.422-53.434h.012c29.5 0 53.422 23.922 53.422 53.434zm0 0" data-original="#20303f" class=""></path><path fill="#ffac33" d="M143.82 115.793v137.21H75.938c-12.493 0-22.618-10.124-22.618-22.616V138.41c0-12.492 10.125-22.617 22.617-22.617zM114.469 73.223H65.492c-6.726 0-12.172-5.453-12.172-12.176 0-20.008 11-37.45 27.274-46.598 2.054-1.156 4.433-1.613 6.781-1.422l94.707 7.778" data-original="#ffac33" class=""></path><path fill="#394d63" d="M396.441 61.047V504.39H167.902c-29.511 0-53.433-23.922-53.433-53.434V61.047c0-7.25-1.438-14.156-4.059-20.453-8.02-19.356-27.101-32.98-49.363-32.98h281.96c22.27 0 41.356 13.624 49.376 32.98 2.62 6.297 4.058 13.203 4.058 20.453zm0 0" data-original="#394d63" class=""></path><path fill="#20303f" d="M392.379 40.594H110.41c-8.02-19.356-27.101-32.98-49.363-32.98h281.96c22.27 0 41.356 13.624 49.372 32.98zm0 0" data-original="#20303f" class=""></path><path fill="#ffc933" d="M355.113 385.648v-11.035c0-12.492-10.125-22.617-22.617-22.617H182.805c-12.493 0-22.618 10.125-22.618 22.617v76.344c0 29.512 23.922 53.434 53.434 53.434h112.266" data-original="#ffc933"></path><path fill="#20303f" d="M205.684 488.738c9.668-9.668 15.652-23.02 15.652-37.781v-41.246c0-13.29 10.773-24.063 24.062-24.063h233.844c13.29 0 24.063 10.774 24.063 24.063v41.246c0 29.512-23.922 53.434-53.434 53.434H167.914c14.75 0 28.102-5.985 37.77-15.653zm0 0" data-original="#20303f" class=""></path><path fill="#ffac33" d="M408.54 504.395c14.76 0 28.112-5.985 37.78-15.653 9.672-9.668 15.653-23.02 15.653-37.781v-9.11c0-12.492-10.125-22.617-22.618-22.617l-149.69-.004c-12.493 0-22.618 10.125-22.618 22.618v9.109c0 14.762-5.984 28.113-15.652 37.781s-23.02 15.653-37.782 15.653" data-original="#ffac33" class=""></path><path fill="#ffc933" d="M355.113 61.047v45.969c0 12.492-10.125 22.617-22.617 22.617H182.793c-12.488 0-22.617-10.125-22.617-22.617v-45.97c0-7.25-1.438-14.155-4.059-20.452-8.015-19.356-27.101-32.98-49.363-32.98H301.68c14.75 0 28.113 5.98 37.78 15.648a53.471 53.471 0 0 1 11.595 17.332 53.273 53.273 0 0 1 4.058 20.453zm0 0" data-original="#ffc933"></path><path fill="#ffac33" d="M351.055 40.594H156.117c-8.015-19.356-27.101-32.98-49.363-32.98H301.68c14.75 0 28.113 5.98 37.78 15.648a53.471 53.471 0 0 1 11.595 17.332zm0 0" data-original="#ffac33" class=""></path><path fill="#ffc933" d="M355.113 194.82v91.977c0 12.492-10.125 22.617-22.617 22.617H182.793c-12.488 0-22.617-10.125-22.617-22.617V194.82c0-12.492 10.129-22.617 22.617-22.617h149.703c12.492 0 22.617 10.129 22.617 22.617zm0 0" data-original="#ffc933"></path><path d="M479.238 378.043h-75.191v-64.902c0-4.204-3.406-7.61-7.61-7.61s-7.609 3.406-7.609 7.61v64.902h-26.105v-3.43c0-16.668-13.559-30.226-30.227-30.226H182.805c-16.668 0-30.227 13.558-30.227 30.226v76.344c0 17.563 7.676 34.105 20.422 45.531-1.672.188-3.371.29-5.094.29-25.265 0-45.824-20.555-45.824-45.821V61.047c0-18.242-8.055-34.629-20.777-45.824H106.758c25.262 0 45.812 20.554 45.812 45.82v45.973c0 16.668 13.559 30.226 30.227 30.226H332.5c16.664 0 30.227-13.558 30.227-30.226v-45.97c0-16.304-6.352-31.632-17.88-43.163a60.888 60.888 0 0 0-2.855-2.66h1.016c25.265 0 45.824 20.554 45.824 45.82v221.656c0 4.203 3.406 7.61 7.61 7.61s7.609-3.407 7.609-7.61V61.043C404.047 27.383 376.664 0 343.008 0H61.023C27.375.008 0 27.383 0 61.035v201.777c0 18.43 14.992 33.422 33.422 33.422h73.437l.004 154.723c0 33.66 27.383 61.043 61.04 61.043H449.87c33.656 0 61.04-27.383 61.04-61.043v-41.242c.003-17.465-14.208-31.672-31.673-31.672zM347.504 61.047v45.969c0 8.273-6.73 15.007-15.008 15.007H182.793c-8.273 0-15.004-6.73-15.004-15.007v-45.97c0-18.237-8.035-34.628-20.754-45.823H301.68c12.238 0 23.746 4.765 32.398 13.422 8.66 8.656 13.426 20.16 13.426 32.402zm-240.645 0v4.566H65.492a4.571 4.571 0 0 1-4.562-4.566c0-16.387 8.902-31.586 22.949-39.703 13.719 7.926 22.98 22.746 22.98 39.703zM33.422 281.012c-10.035 0-18.2-8.164-18.2-18.2V61.036c0-25.262 20.551-45.812 45.821-45.812 1.723 0 3.418.101 5.09.289C53.387 26.938 45.71 43.484 45.71 61.047c0 10.91 8.875 19.789 19.781 19.789h41.367v27.348H75.937c-16.667 0-30.226 13.562-30.226 30.23v14.695c0 4.2 3.406 7.61 7.61 7.61 4.202 0 7.609-3.41 7.609-7.61v-14.695c0-8.277 6.734-15.008 15.007-15.008h30.922v121.989H75.937c-8.273 0-15.007-6.735-15.007-15.008V183.55a7.612 7.612 0 0 0-7.61-7.613 7.612 7.612 0 0 0-7.61 7.613v46.836c0 16.668 13.56 30.226 30.227 30.226h30.922v20.399zm157.324 209.644c-14.05-8.117-22.945-23.316-22.945-39.699v-76.344c0-8.277 6.73-15.008 15.004-15.008h149.691c8.277 0 15.008 6.73 15.008 15.008v3.426H245.398c-17.464 0-31.671 14.211-31.671 31.676v41.242c0 16.953-9.262 31.773-22.98 39.7zm218.016 6.121H253.926a65.018 65.018 0 0 0 2.851-2.656c11.528-11.531 17.88-26.86 17.88-43.164v-9.11c0-8.273 6.734-15.003 15.007-15.003h149.691c8.278 0 15.008 6.734 15.008 15.008v9.109c0 12.238-4.765 23.746-13.422 32.402-8.601 8.602-20.023 13.36-32.18 13.414zm86.93-45.82c0 25.266-20.555 45.82-45.82 45.82h-1.017a62.69 62.69 0 0 0 2.848-2.652c11.531-11.531 17.879-26.86 17.879-43.164v-9.11c0-16.667-13.559-30.226-30.227-30.226l-149.69-.004c-16.669 0-30.231 13.559-30.231 30.227v9.109c0 12.238-4.766 23.746-13.422 32.402-8.649 8.645-20.137 13.41-32.36 13.422h-5.46c12.718-11.195 20.753-27.59 20.753-45.824v-41.242c0-9.07 7.38-16.453 16.453-16.453h233.84c9.07 0 16.453 7.383 16.453 16.453zm0 0" fill="#000000" data-original="#000000" class=""></path><path d="M332.496 164.594H182.793c-16.664 0-30.227 13.558-30.227 30.226v91.977c0 16.668 13.559 30.226 30.227 30.226h149.703c16.668 0 30.23-13.558 30.23-30.226V194.82c0-16.668-13.562-30.226-30.23-30.226zm15.008 122.203c0 8.273-6.73 15.008-15.008 15.008H182.793c-8.273 0-15.004-6.735-15.004-15.008V194.82c0-8.273 6.73-15.007 15.004-15.007h149.703c8.274 0 15.008 6.734 15.008 15.007zm0 0" fill="#000000" data-original="#000000" class=""></path></g></svg>